<svg xmlns="http://www.w3.org/2000/svg" xmlns:xlink="http://www.w3.org/1999/xlink" width="324" zoomAndPan="magnify" viewBox="0 0 242.87999 153.000002" height="204" preserveAspectRatio="xMidYMid meet" version="1.2"><defs><clipPath id="c4bcbcb325"><path d="M 182 25 L 197 25 L 197 31.507812 L 182 31.507812 Z M 182 25 "/></clipPath><clipPath id="57341844a8"><path d="M 130 2 L 242.03125 2 L 242.03125 26 L 130 26 Z M 130 2 "/></clipPath><clipPath id="06194f05a0"><path d="M 0.730469 0 L 242.03125 0 L 242.03125 26 L 0.730469 26 Z M 0.730469 0 "/></clipPath><clipPath id="7473773b06"><path d="M 189 0 L 242.03125 0 L 242.03125 31.507812 L 189 31.507812 Z M 189 0 "/></clipPath><clipPath id="59e49ed9d0"><path d="M 203 0 L 242.03125 0 L 242.03125 6 L 203 6 Z M 203 0 "/></clipPath><clipPath id="5ea743cd61"><path d="M 189 25 L 196 25 L 196 31.507812 L 189 31.507812 Z M 189 25 "/></clipPath><clipPath id="9d3a0d52fb"><path d="M 0.730469 75 L 2 75 L 2 77 L 0.730469 77 Z M 0.730469 75 "/></clipPath><clipPath id="7892e5a25d"><path d="M 0.730469 69 L 1 69 L 1 71 L 0.730469 71 Z M 0.730469 69 "/></clipPath><clipPath id="be4b760ee6"><path d="M 0.730469 83 L 1 83 L 1 85 L 0.730469 85 Z M 0.730469 83 "/></clipPath><clipPath id="4fee7c893a"><path d="M 0.730469 80 L 2 80 L 2 83 L 0.730469 83 Z M 0.730469 80 "/></clipPath><clipPath id="0e8999087d"><path d="M 0.730469 72 L 2 72 L 2 74 L 0.730469 74 Z M 0.730469 72 "/></clipPath><clipPath id="487a940b5b"><path d="M 0.730469 67 L 2 67 L 2 69 L 0.730469 69 Z M 0.730469 67 "/></clipPath><clipPath id="eaefd42873"><path d="M 0.730469 88 L 2 88 L 2 91 L 0.730469 91 Z M 0.730469 88 "/></clipPath><clipPath id="b227e6175c"><path d="M 0.730469 91 L 1 91 L 1 93 L 0.730469 93 Z M 0.730469 91 "/></clipPath><clipPath id="93f4ad8e85"><path d="M 0.730469 61 L 1 61 L 1 63 L 0.730469 63 Z M 0.730469 61 "/></clipPath><clipPath id="ee8ddb122d"><path d="M 0.730469 59 L 2 59 L 2 61 L 0.730469 61 Z M 0.730469 59 "/></clipPath><clipPath id="d13a7ef8d4"><path d="M 0.730469 97 L 2 97 L 2 99 L 0.730469 99 Z M 0.730469 97 "/></clipPath><clipPath id="b07d084d96"><path d="M 0.730469 53 L 1 53 L 1 55 L 0.730469 55 Z M 0.730469 53 "/></clipPath><clipPath id="8e436dcc09"><path d="M 0.730469 51 L 2 51 L 2 52 L 0.730469 52 Z M 0.730469 51 "/></clipPath><clipPath id="ec1ee8cd1c"><path d="M 0.730469 105 L 1 105 L 1 106 L 0.730469 106 Z M 0.730469 105 "/></clipPath><clipPath id="e42de37214"><path d="M 0.730469 45 L 1 45 L 1 47 L 0.730469 47 Z M 0.730469 45 "/></clipPath><clipPath id="0ac99a247a"><path d="M 14 80 L 15.824219 80 L 15.824219 82 L 14 82 Z M 14 80 "/></clipPath><clipPath id="fc7ff0d910"><path d="M 15 78 L 15.824219 78 L 15.824219 79 L 15 79 Z M 15 78 "/></clipPath><clipPath id="9ce764eb62"><path d="M 15 72 L 15.824219 72 L 15.824219 74 L 15 74 Z M 15 72 "/></clipPath><clipPath id="17c35b57bd"><path d="M 15 86 L 15.824219 86 L 15.824219 87 L 15 87 Z M 15 86 "/></clipPath></defs><g id="60dcb6aeb6"><g clip-rule="nonzero" clip-path="url(#c4bcbcb325)"><path style=" stroke:none;fill-rule:evenodd;fill:#002618;fill-opacity:1;" d="M 189.132812 31.234375 C 193.652344 30.242188 193.996094 28.550781 196.296875 25.644531 L 182.601562 25.652344 C 183.046875 28.40625 186.082031 31.429688 189.132812 31.234375 Z M 189.132812 31.234375 "/></g><g clip-rule="nonzero" clip-path="url(#57341844a8)"><path style=" stroke:none;fill-rule:evenodd;fill:#33cc99;fill-opacity:1;" d="M 130.871094 25.699219 L 182.601562 25.652344 L 245.804688 25.644531 L 245.914062 5.734375 C 147.5625 2.964844 131.933594 -7.160156 130.871094 25.699219 Z M 130.871094 25.699219 "/></g><g clip-rule="nonzero" clip-path="url(#06194f05a0)"><path style=" stroke:none;fill-rule:evenodd;fill:#336666;fill-opacity:1;" d="M 194.476562 25.648438 L 195.296875 25.632812 C 197.191406 23.679688 203.816406 8.699219 204.601562 5.6875 C 215.136719 5.660156 244.921875 5.613281 245.914062 5.734375 L 245.914062 -7.183594 L -3.703125 -7.136719 L -3.703125 25.699219 L 132.828125 25.699219 C 138.546875 20.140625 136.039062 5.289062 149.503906 5.285156 L 203.492188 5.253906 C 203.480469 5.253906 198.8125 18.21875 194.476562 25.648438 Z M 194.476562 25.648438 "/></g><g clip-rule="nonzero" clip-path="url(#7473773b06)"><path style=" stroke:none;fill-rule:evenodd;fill:#66ffcc;fill-opacity:1;" d="M 204.609375 5.671875 C 204.195312 7.273438 201.042969 14.621094 200.371094 16.054688 C 196.679688 23.945312 192.542969 30.265625 189.132812 31.234375 L 221.285156 31.128906 C 234.800781 17.375 221.113281 11.210938 245.914062 12.109375 L 245.914062 -5.398438 C 244.191406 -5.335938 232.417969 -5.386719 230.679688 -5.386719 C 228.933594 -5.390625 227.1875 -5.339844 225.445312 -5.351562 C 221.972656 -5.375 218.699219 -5.5 215.234375 -5.109375 C 210.425781 -4.5625 208.046875 -2.367188 206.164062 1.855469 C 205.878906 2.496094 204.824219 5.375 204.609375 5.671875 Z M 204.609375 5.671875 "/></g><g clip-rule="nonzero" clip-path="url(#59e49ed9d0)"><path style=" stroke:none;fill-rule:evenodd;fill:#003333;fill-opacity:1;" d="M 203.460938 5.246094 L 204.816406 5.308594 C 205 4.933594 205.878906 2.496094 206.164062 1.855469 C 208.046875 -2.367188 210.425781 -4.5625 215.234375 -5.109375 L 245.914062 -5.257812 L 245.914062 -6.34375 L 213.90625 -6.164062 C 208.8125 -5.378906 206.867188 -2.855469 204.824219 1.679688 C 204.519531 2.355469 203.652344 4.695312 203.460938 5.246094 Z M 203.460938 5.246094 "/></g><g clip-rule="nonzero" clip-path="url(#5ea743cd61)"><path style=" stroke:none;fill-rule:evenodd;fill:#003333;fill-opacity:1;" d="M 195.066406 25.640625 L 194.476562 25.648438 C 194.476562 25.617188 191.429688 30.554688 189.132812 31.234375 C 190.589844 31.558594 194.355469 26.859375 195.066406 25.640625 Z M 195.066406 25.640625 "/></g><g clip-rule="nonzero" clip-path="url(#9d3a0d52fb)"><path style=" stroke:none;fill-rule:nonzero;fill:#7fdbcd;fill-opacity:1;" d="M 0.582031 76.332031 C 0.257812 76.328125 0.0117188 76.070312 0.0234375 75.742188 C 0.03125 75.4375 0.273438 75.191406 0.574219 75.183594 C 0.882812 75.175781 1.160156 75.445312 1.164062 75.757812 C 1.167969 76.070312 0.898438 76.339844 0.582031 76.332031 Z M 0.582031 76.332031 "/></g><g clip-rule="nonzero" clip-path="url(#7892e5a25d)"><path style=" stroke:none;fill-rule:nonzero;fill:#7fdbcd;fill-opacity:1;" d="M -0.0820312 70.664062 C -0.402344 70.65625 -0.644531 70.394531 -0.628906 70.070312 C -0.613281 69.773438 -0.363281 69.53125 -0.0703125 69.527344 C 0.238281 69.523438 0.515625 69.800781 0.511719 70.105469 C 0.507812 70.421875 0.242188 70.671875 -0.0820312 70.664062 Z M -0.0820312 70.664062 "/></g><g clip-rule="nonzero" clip-path="url(#be4b760ee6)"><path style=" stroke:none;fill-rule:nonzero;fill:#7fdbcd;fill-opacity:1;" d="M 0.929688 83.875 C 0.917969 84.179688 0.671875 84.421875 0.371094 84.421875 C 0.0546875 84.421875 -0.210938 84.144531 -0.195312 83.828125 C -0.183594 83.535156 0.078125 83.28125 0.371094 83.28125 C 0.683594 83.28125 0.941406 83.550781 0.929688 83.875 Z M 0.929688 83.875 "/></g><g clip-rule="nonzero" clip-path="url(#4fee7c893a)"><path style=" stroke:none;fill-rule:nonzero;fill:#7fdbcd;fill-opacity:1;" d="M 0.6875 81.46875 C 0.679688 81.164062 0.90625 80.910156 1.203125 80.886719 C 1.511719 80.859375 1.789062 81.125 1.789062 81.445312 C 1.789062 81.746094 1.546875 81.996094 1.25 82.003906 C 0.957031 82.011719 0.699219 81.769531 0.6875 81.46875 Z M 0.6875 81.46875 "/></g><g clip-rule="nonzero" clip-path="url(#0e8999087d)"><path style=" stroke:none;fill-rule:nonzero;fill:#7fdbcd;fill-opacity:1;" d="M 1.996094 73.371094 C 2 73.679688 1.765625 73.921875 1.460938 73.925781 C 1.15625 73.929688 0.910156 73.6875 0.90625 73.382812 C 0.902344 73.078125 1.140625 72.835938 1.445312 72.832031 C 1.757812 72.828125 1.992188 73.058594 1.996094 73.371094 Z M 1.996094 73.371094 "/></g><path style=" stroke:none;fill-rule:nonzero;fill:#7fdbcd;fill-opacity:1;" d="M 2.644531 79.03125 C 2.648438 79.332031 2.394531 79.585938 2.097656 79.582031 C 1.800781 79.578125 1.5625 79.324219 1.570312 79.019531 C 1.578125 78.730469 1.800781 78.503906 2.085938 78.496094 C 2.386719 78.484375 2.640625 78.730469 2.644531 79.03125 Z M 2.644531 79.03125 "/><g clip-rule="nonzero" clip-path="url(#487a940b5b)"><path style=" stroke:none;fill-rule:nonzero;fill:#7fdbcd;fill-opacity:1;" d="M 0.804688 67.164062 C 1.101562 67.164062 1.324219 67.378906 1.335938 67.671875 C 1.347656 67.976562 1.101562 68.234375 0.800781 68.234375 C 0.523438 68.230469 0.277344 67.996094 0.261719 67.71875 C 0.246094 67.421875 0.496094 67.164062 0.804688 67.164062 Z M 0.804688 67.164062 "/></g><path style=" stroke:none;fill-rule:nonzero;fill:#7fdbcd;fill-opacity:1;" d="M 2.839844 70.988281 C 2.828125 71.269531 2.578125 71.507812 2.300781 71.492188 C 2.023438 71.480469 1.785156 71.222656 1.796875 70.949219 C 1.808594 70.667969 2.050781 70.445312 2.339844 70.453125 C 2.625 70.460938 2.851562 70.703125 2.839844 70.988281 Z M 2.839844 70.988281 "/><path style=" stroke:none;fill-rule:nonzero;fill:#7fdbcd;fill-opacity:1;" d="M 3.515625 76.667969 C 3.507812 76.949219 3.257812 77.1875 2.980469 77.179688 C 2.703125 77.167969 2.460938 76.910156 2.472656 76.636719 C 2.480469 76.355469 2.722656 76.128906 3.007812 76.136719 C 3.296875 76.144531 3.523438 76.378906 3.515625 76.667969 Z M 3.515625 76.667969 "/><g clip-rule="nonzero" clip-path="url(#eaefd42873)"><path style=" stroke:none;fill-rule:nonzero;fill:#7fdbcd;fill-opacity:1;" d="M 1.003906 90.023438 C 0.710938 90.015625 0.5 89.789062 0.507812 89.492188 C 0.515625 89.207031 0.761719 88.976562 1.039062 88.988281 C 1.320312 89 1.550781 89.25 1.539062 89.53125 C 1.53125 89.816406 1.296875 90.03125 1.003906 90.023438 Z M 1.003906 90.023438 "/></g><g clip-rule="nonzero" clip-path="url(#b227e6175c)"><path style=" stroke:none;fill-rule:nonzero;fill:#7fdbcd;fill-opacity:1;" d="M 0.15625 92.429688 C -0.140625 92.429688 -0.355469 92.21875 -0.355469 91.921875 C -0.355469 91.632812 -0.128906 91.398438 0.152344 91.402344 C 0.433594 91.402344 0.667969 91.636719 0.671875 91.921875 C 0.671875 92.207031 0.445312 92.429688 0.15625 92.429688 Z M 0.15625 92.429688 "/></g><path style=" stroke:none;fill-rule:nonzero;fill:#7fdbcd;fill-opacity:1;" d="M 1.875 87.640625 C 1.582031 87.632812 1.371094 87.410156 1.378906 87.117188 C 1.382812 86.824219 1.601562 86.613281 1.898438 86.617188 C 2.1875 86.625 2.410156 86.855469 2.402344 87.140625 C 2.398438 87.421875 2.164062 87.644531 1.875 87.640625 Z M 1.875 87.640625 "/><path style=" stroke:none;fill-rule:nonzero;fill:#7fdbcd;fill-opacity:1;" d="M 3.257812 84.703125 C 3.265625 84.996094 3.050781 85.21875 2.757812 85.21875 C 2.464844 85.222656 2.25 85.007812 2.25 84.714844 C 2.253906 84.441406 2.453125 84.230469 2.726562 84.21875 C 3.023438 84.203125 3.246094 84.410156 3.257812 84.703125 Z M 3.257812 84.703125 "/><g clip-rule="nonzero" clip-path="url(#93f4ad8e85)"><path style=" stroke:none;fill-rule:nonzero;fill:#7fdbcd;fill-opacity:1;" d="M 0.652344 62.019531 C 0.648438 62.289062 0.433594 62.507812 0.167969 62.515625 C -0.117188 62.523438 -0.351562 62.289062 -0.347656 62 C -0.339844 61.730469 -0.125 61.511719 0.136719 61.503906 C 0.425781 61.496094 0.652344 61.726562 0.652344 62.019531 Z M 0.652344 62.019531 "/></g><path style=" stroke:none;fill-rule:nonzero;fill:#7fdbcd;fill-opacity:1;" d="M 3.867188 74.738281 C 3.597656 74.738281 3.371094 74.523438 3.363281 74.257812 C 3.355469 74 3.574219 73.761719 3.835938 73.746094 C 4.105469 73.726562 4.367188 73.976562 4.363281 74.25 C 4.359375 74.515625 4.132812 74.734375 3.867188 74.738281 Z M 3.867188 74.738281 "/><path style=" stroke:none;fill-rule:nonzero;fill:#7fdbcd;fill-opacity:1;" d="M 1.660156 64.78125 C 1.917969 64.773438 2.148438 64.984375 2.167969 65.246094 C 2.1875 65.535156 1.972656 65.777344 1.683594 65.785156 C 1.417969 65.792969 1.195312 65.589844 1.179688 65.320312 C 1.160156 65.027344 1.375 64.789062 1.660156 64.78125 Z M 1.660156 64.78125 "/><path style=" stroke:none;fill-rule:nonzero;fill:#7fdbcd;fill-opacity:1;" d="M 3.640625 82.800781 C 3.367188 82.796875 3.148438 82.582031 3.144531 82.316406 C 3.140625 82.039062 3.386719 81.804688 3.675781 81.820312 C 3.941406 81.832031 4.15625 82.0625 4.144531 82.328125 C 4.132812 82.597656 3.910156 82.804688 3.640625 82.800781 Z M 3.640625 82.800781 "/><path style=" stroke:none;fill-rule:nonzero;fill:#7fdbcd;fill-opacity:1;" d="M 3.21875 69.039062 C 2.941406 69.042969 2.734375 68.84375 2.730469 68.566406 C 2.726562 68.296875 2.945312 68.070312 3.207031 68.066406 C 3.464844 68.0625 3.695312 68.292969 3.699219 68.550781 C 3.703125 68.824219 3.496094 69.035156 3.21875 69.039062 Z M 3.21875 69.039062 "/><path style=" stroke:none;fill-rule:nonzero;fill:#7fdbcd;fill-opacity:1;" d="M 4.535156 80.402344 C 4.265625 80.414062 4.035156 80.214844 4.023438 79.949219 C 4.007812 79.699219 4.230469 79.457031 4.484375 79.4375 C 4.742188 79.417969 4.976562 79.632812 4.988281 79.898438 C 5.003906 80.175781 4.808594 80.394531 4.535156 80.402344 Z M 4.535156 80.402344 "/><g clip-rule="nonzero" clip-path="url(#ee8ddb122d)"><path style=" stroke:none;fill-rule:nonzero;fill:#7fdbcd;fill-opacity:1;" d="M 1.007812 60.074219 C 0.753906 60.070312 0.546875 59.859375 0.554688 59.613281 C 0.566406 59.363281 0.777344 59.167969 1.035156 59.175781 C 1.289062 59.179688 1.488281 59.386719 1.480469 59.636719 C 1.476562 59.890625 1.269531 60.082031 1.007812 60.074219 Z M 1.007812 60.074219 "/></g><path style=" stroke:none;fill-rule:nonzero;fill:#7fdbcd;fill-opacity:1;" d="M 2.542969 63.351562 C 2.289062 63.34375 2.085938 63.128906 2.097656 62.882812 C 2.113281 62.632812 2.324219 62.441406 2.582031 62.449219 C 2.835938 62.457031 3.035156 62.667969 3.023438 62.921875 C 3.011719 63.171875 2.804688 63.359375 2.542969 63.351562 Z M 2.542969 63.351562 "/><path style=" stroke:none;fill-rule:nonzero;fill:#7fdbcd;fill-opacity:1;" d="M 4.675781 72.292969 C 4.421875 72.269531 4.25 72.058594 4.269531 71.792969 C 4.289062 71.542969 4.507812 71.351562 4.757812 71.367188 C 5.03125 71.386719 5.226562 71.632812 5.1875 71.898438 C 5.152344 72.152344 4.9375 72.320312 4.675781 72.292969 Z M 4.675781 72.292969 "/><path style=" stroke:none;fill-rule:nonzero;fill:#7fdbcd;fill-opacity:1;" d="M 3.40625 89.917969 C 3.648438 89.917969 3.867188 90.136719 3.867188 90.378906 C 3.867188 90.621094 3.648438 90.839844 3.40625 90.839844 C 3.15625 90.839844 2.941406 90.625 2.945312 90.378906 C 2.945312 90.128906 3.15625 89.921875 3.40625 89.917969 Z M 3.40625 89.917969 "/><path style=" stroke:none;fill-rule:nonzero;fill:#7fdbcd;fill-opacity:1;" d="M 4.0625 66.621094 C 3.804688 66.613281 3.605469 66.394531 3.625 66.148438 C 3.640625 65.894531 3.863281 65.710938 4.121094 65.730469 C 4.351562 65.746094 4.539062 65.953125 4.535156 66.179688 C 4.53125 66.433594 4.320312 66.628906 4.0625 66.621094 Z M 4.0625 66.621094 "/><path style=" stroke:none;fill-rule:nonzero;fill:#7fdbcd;fill-opacity:1;" d="M 2.539062 93.242188 C 2.292969 93.242188 2.078125 93.03125 2.078125 92.785156 C 2.082031 92.546875 2.296875 92.332031 2.539062 92.332031 C 2.78125 92.328125 2.996094 92.542969 2.996094 92.785156 C 2.996094 93.027344 2.78125 93.242188 2.539062 93.242188 Z M 2.539062 93.242188 "/><path style=" stroke:none;fill-rule:nonzero;fill:#7fdbcd;fill-opacity:1;" d="M 2.125 95.195312 C 2.125 95.445312 1.90625 95.652344 1.65625 95.644531 C 1.425781 95.636719 1.230469 95.445312 1.21875 95.21875 C 1.203125 94.980469 1.417969 94.75 1.660156 94.742188 C 1.902344 94.734375 2.121094 94.949219 2.125 95.195312 Z M 2.125 95.195312 "/><path style=" stroke:none;fill-rule:nonzero;fill:#7fdbcd;fill-opacity:1;" d="M 4.75 88 C 4.746094 88.242188 4.527344 88.457031 4.289062 88.453125 C 4.054688 88.449219 3.835938 88.226562 3.839844 87.988281 C 3.84375 87.75 4.066406 87.53125 4.300781 87.539062 C 4.542969 87.542969 4.757812 87.761719 4.75 88 Z M 4.75 88 "/><path style=" stroke:none;fill-rule:nonzero;fill:#7fdbcd;fill-opacity:1;" d="M 5.394531 77.976562 C 5.140625 77.984375 4.929688 77.789062 4.921875 77.535156 C 4.914062 77.277344 5.105469 77.070312 5.363281 77.058594 C 5.617188 77.050781 5.828125 77.246094 5.835938 77.503906 C 5.84375 77.765625 5.65625 77.96875 5.394531 77.976562 Z M 5.394531 77.976562 "/><path style=" stroke:none;fill-rule:nonzero;fill:#7fdbcd;fill-opacity:1;" d="M 5.617188 85.570312 C 5.625 85.8125 5.40625 86.039062 5.164062 86.042969 C 4.925781 86.042969 4.707031 85.820312 4.710938 85.578125 C 4.714844 85.355469 4.910156 85.148438 5.136719 85.132812 C 5.375 85.117188 5.605469 85.328125 5.617188 85.570312 Z M 5.617188 85.570312 "/><path style=" stroke:none;fill-rule:nonzero;fill:#7fdbcd;fill-opacity:1;" d="M 6.246094 75.554688 C 6.019531 75.554688 5.824219 75.371094 5.8125 75.136719 C 5.800781 74.875 5.988281 74.675781 6.246094 74.675781 C 6.484375 74.679688 6.671875 74.855469 6.6875 75.089844 C 6.699219 75.335938 6.492188 75.554688 6.246094 75.554688 Z M 6.246094 75.554688 "/><path style=" stroke:none;fill-rule:nonzero;fill:#7fdbcd;fill-opacity:1;" d="M 5.578125 69.015625 C 5.808594 69.003906 6.007812 69.183594 6.023438 69.421875 C 6.039062 69.664062 5.875 69.859375 5.636719 69.878906 C 5.382812 69.902344 5.160156 69.707031 5.160156 69.457031 C 5.15625 69.230469 5.347656 69.027344 5.578125 69.015625 Z M 5.578125 69.015625 "/><g clip-rule="nonzero" clip-path="url(#d13a7ef8d4)"><path style=" stroke:none;fill-rule:nonzero;fill:#7fdbcd;fill-opacity:1;" d="M 0.808594 98.015625 C 0.554688 98.015625 0.34375 97.804688 0.359375 97.558594 C 0.371094 97.332031 0.566406 97.144531 0.796875 97.140625 C 1.050781 97.136719 1.25 97.34375 1.242188 97.597656 C 1.230469 97.835938 1.046875 98.015625 0.808594 98.015625 Z M 0.808594 98.015625 "/></g><path style=" stroke:none;fill-rule:nonzero;fill:#7fdbcd;fill-opacity:1;" d="M 6.925781 80.375 C 7.15625 80.378906 7.351562 80.574219 7.347656 80.800781 C 7.34375 81.015625 7.132812 81.226562 6.914062 81.222656 C 6.691406 81.21875 6.496094 81.019531 6.5 80.789062 C 6.5 80.554688 6.691406 80.371094 6.925781 80.375 Z M 6.925781 80.375 "/><path style=" stroke:none;fill-rule:nonzero;fill:#7fdbcd;fill-opacity:1;" d="M 6.046875 83.617188 C 5.816406 83.625 5.617188 83.441406 5.601562 83.207031 C 5.589844 82.964844 5.753906 82.769531 5.992188 82.75 C 6.246094 82.730469 6.46875 82.929688 6.46875 83.175781 C 6.46875 83.398438 6.269531 83.605469 6.046875 83.617188 Z M 6.046875 83.617188 "/><path style=" stroke:none;fill-rule:nonzero;fill:#7fdbcd;fill-opacity:1;" d="M 7.546875 72.71875 C 7.550781 72.941406 7.339844 73.148438 7.121094 73.136719 C 6.921875 73.128906 6.726562 72.933594 6.722656 72.734375 C 6.71875 72.515625 6.9375 72.304688 7.152344 72.3125 C 7.359375 72.324219 7.542969 72.515625 7.546875 72.71875 Z M 7.546875 72.71875 "/><path style=" stroke:none;fill-rule:nonzero;fill:#7fdbcd;fill-opacity:1;" d="M 4.949219 63.355469 C 5.179688 63.359375 5.363281 63.5625 5.347656 63.796875 C 5.335938 64.007812 5.152344 64.183594 4.941406 64.179688 C 4.714844 64.175781 4.53125 63.976562 4.546875 63.738281 C 4.558594 63.527344 4.742188 63.351562 4.949219 63.355469 Z M 4.949219 63.355469 "/><path style=" stroke:none;fill-rule:nonzero;fill:#7fdbcd;fill-opacity:1;" d="M 1.917969 57.628906 C 1.699219 57.632812 1.492188 57.421875 1.503906 57.203125 C 1.511719 57 1.703125 56.8125 1.902344 56.808594 C 2.117188 56.800781 2.332031 57.019531 2.320312 57.234375 C 2.3125 57.433594 2.117188 57.625 1.917969 57.628906 Z M 1.917969 57.628906 "/><path style=" stroke:none;fill-rule:nonzero;fill:#7fdbcd;fill-opacity:1;" d="M 3.429688 60.074219 C 3.636719 60.074219 3.824219 60.257812 3.832031 60.46875 C 3.847656 60.707031 3.65625 60.910156 3.425781 60.910156 C 3.210938 60.90625 3.03125 60.730469 3.023438 60.515625 C 3.011719 60.277344 3.199219 60.074219 3.429688 60.074219 Z M 3.429688 60.074219 "/><path style=" stroke:none;fill-rule:nonzero;fill:#7fdbcd;fill-opacity:1;" d="M 6.882812 67.035156 C 6.886719 67.25 6.707031 67.433594 6.496094 67.441406 C 6.285156 67.449219 6.101562 67.269531 6.097656 67.050781 C 6.09375 66.828125 6.261719 66.652344 6.480469 66.648438 C 6.691406 66.644531 6.878906 66.820312 6.882812 67.035156 Z M 6.882812 67.035156 "/><path style=" stroke:none;fill-rule:nonzero;fill:#7fdbcd;fill-opacity:1;" d="M 7.796875 77.984375 C 8.003906 77.992188 8.191406 78.191406 8.1875 78.398438 C 8.179688 78.613281 7.996094 78.785156 7.773438 78.777344 C 7.558594 78.773438 7.375 78.582031 7.386719 78.371094 C 7.394531 78.167969 7.597656 77.976562 7.796875 77.984375 Z M 7.796875 77.984375 "/><g clip-rule="nonzero" clip-path="url(#b07d084d96)"><path style=" stroke:none;fill-rule:nonzero;fill:#7fdbcd;fill-opacity:1;" d="M 0.757812 53.917969 C 0.769531 54.132812 0.605469 54.324219 0.394531 54.335938 C 0.191406 54.351562 -0.0117188 54.171875 -0.0273438 53.964844 C -0.0429688 53.761719 0.136719 53.566406 0.34375 53.550781 C 0.5625 53.539062 0.746094 53.703125 0.757812 53.917969 Z M 0.757812 53.917969 "/></g><path style=" stroke:none;fill-rule:nonzero;fill:#7fdbcd;fill-opacity:1;" d="M 5.332031 93.664062 C 5.328125 93.875 5.132812 94.054688 4.925781 94.042969 C 4.714844 94.03125 4.546875 93.839844 4.5625 93.625 C 4.578125 93.421875 4.734375 93.277344 4.941406 93.277344 C 5.164062 93.273438 5.339844 93.449219 5.332031 93.664062 Z M 5.332031 93.664062 "/><path style=" stroke:none;fill-rule:nonzero;fill:#7fdbcd;fill-opacity:1;" d="M 7.1875 86.460938 C 7.179688 86.25 7.375 86.058594 7.585938 86.070312 C 7.78125 86.078125 7.941406 86.246094 7.945312 86.445312 C 7.953125 86.648438 7.800781 86.816406 7.601562 86.832031 C 7.386719 86.851562 7.191406 86.675781 7.1875 86.460938 Z M 7.1875 86.460938 "/><path style=" stroke:none;fill-rule:nonzero;fill:#7fdbcd;fill-opacity:1;" d="M 5.804688 90.878906 C 6.023438 90.875 6.207031 91.054688 6.203125 91.269531 C 6.203125 91.492188 6.023438 91.664062 5.800781 91.65625 C 5.59375 91.648438 5.4375 91.5 5.425781 91.292969 C 5.414062 91.066406 5.582031 90.886719 5.804688 90.878906 Z M 5.804688 90.878906 "/><path style=" stroke:none;fill-rule:nonzero;fill:#7fdbcd;fill-opacity:1;" d="M 6.683594 89.242188 C 6.464844 89.246094 6.296875 89.074219 6.300781 88.855469 C 6.304688 88.636719 6.484375 88.464844 6.699219 88.476562 C 6.890625 88.488281 7.054688 88.652344 7.066406 88.84375 C 7.078125 89.054688 6.902344 89.242188 6.683594 89.242188 Z M 6.683594 89.242188 "/><path style=" stroke:none;fill-rule:nonzero;fill:#7fdbcd;fill-opacity:1;" d="M 4.097656 96.449219 C 3.90625 96.460938 3.722656 96.296875 3.703125 96.105469 C 3.679688 95.882812 3.839844 95.695312 4.0625 95.6875 C 4.265625 95.679688 4.4375 95.824219 4.460938 96.023438 C 4.484375 96.230469 4.308594 96.4375 4.097656 96.449219 Z M 4.097656 96.449219 "/><path style=" stroke:none;fill-rule:nonzero;fill:#7fdbcd;fill-opacity:1;" d="M 3.210938 98.847656 C 3.023438 98.863281 2.835938 98.699219 2.820312 98.503906 C 2.804688 98.296875 2.941406 98.125 3.144531 98.101562 C 3.363281 98.078125 3.554688 98.242188 3.5625 98.460938 C 3.570312 98.652344 3.402344 98.832031 3.210938 98.847656 Z M 3.210938 98.847656 "/><path style=" stroke:none;fill-rule:nonzero;fill:#7fdbcd;fill-opacity:1;" d="M 9.019531 75.984375 C 9.015625 76.195312 8.867188 76.34375 8.65625 76.34375 C 8.453125 76.347656 8.285156 76.191406 8.277344 75.996094 C 8.269531 75.789062 8.46875 75.589844 8.671875 75.597656 C 8.867188 75.609375 9.023438 75.78125 9.019531 75.984375 Z M 9.019531 75.984375 "/><path style=" stroke:none;fill-rule:nonzero;fill:#7fdbcd;fill-opacity:1;" d="M 8.460938 84.429688 C 8.261719 84.441406 8.082031 84.285156 8.066406 84.09375 C 8.054688 83.910156 8.222656 83.722656 8.414062 83.707031 C 8.617188 83.695312 8.789062 83.847656 8.800781 84.046875 C 8.816406 84.246094 8.660156 84.417969 8.460938 84.429688 Z M 8.460938 84.429688 "/><path style=" stroke:none;fill-rule:nonzero;fill:#7fdbcd;fill-opacity:1;" d="M 8.027344 69.953125 C 8.230469 69.964844 8.382812 70.128906 8.378906 70.328125 C 8.371094 70.53125 8.210938 70.6875 8.003906 70.6875 C 7.78125 70.6875 7.621094 70.511719 7.636719 70.285156 C 7.652344 70.078125 7.8125 69.945312 8.027344 69.953125 Z M 8.027344 69.953125 "/><path style=" stroke:none;fill-rule:nonzero;fill:#7fdbcd;fill-opacity:1;" d="M 2.667969 100.839844 C 2.675781 101.035156 2.546875 101.179688 2.359375 101.199219 C 2.144531 101.21875 1.980469 101.078125 1.96875 100.871094 C 1.960938 100.664062 2.117188 100.503906 2.328125 100.507812 C 2.515625 100.507812 2.660156 100.648438 2.667969 100.839844 Z M 2.667969 100.839844 "/><path style=" stroke:none;fill-rule:nonzero;fill:#7fdbcd;fill-opacity:1;" d="M 5.851562 61.003906 C 6.046875 61.011719 6.207031 61.179688 6.199219 61.375 C 6.191406 61.574219 6.027344 61.71875 5.824219 61.714844 C 5.625 61.707031 5.460938 61.535156 5.46875 61.34375 C 5.480469 61.148438 5.652344 60.996094 5.851562 61.003906 Z M 5.851562 61.003906 "/><path style=" stroke:none;fill-rule:nonzero;fill:#7fdbcd;fill-opacity:1;" d="M 4.660156 58.085938 C 4.660156 58.28125 4.488281 58.441406 4.28125 58.433594 C 4.097656 58.429688 3.945312 58.285156 3.933594 58.105469 C 3.917969 57.910156 4.082031 57.738281 4.285156 57.730469 C 4.488281 57.726562 4.660156 57.890625 4.660156 58.085938 Z M 4.660156 58.085938 "/><path style=" stroke:none;fill-rule:nonzero;fill:#7fdbcd;fill-opacity:1;" d="M 9.300781 81.316406 C 9.488281 81.316406 9.644531 81.457031 9.65625 81.636719 C 9.671875 81.828125 9.503906 82.011719 9.308594 82.011719 C 9.109375 82.015625 8.941406 81.839844 8.953125 81.644531 C 8.960938 81.460938 9.113281 81.320312 9.300781 81.316406 Z M 9.300781 81.316406 "/><path style=" stroke:none;fill-rule:nonzero;fill:#7fdbcd;fill-opacity:1;" d="M 2.757812 54.464844 C 2.964844 54.453125 3.128906 54.609375 3.128906 54.8125 C 3.128906 54.996094 2.988281 55.140625 2.800781 55.152344 C 2.589844 55.164062 2.429688 55.015625 2.433594 54.808594 C 2.433594 54.617188 2.574219 54.472656 2.757812 54.464844 Z M 2.757812 54.464844 "/><path style=" stroke:none;fill-rule:nonzero;fill:#7fdbcd;fill-opacity:1;" d="M 7.347656 64.289062 C 7.550781 64.285156 7.714844 64.453125 7.707031 64.652344 C 7.695312 64.835938 7.546875 64.976562 7.359375 64.980469 C 7.171875 64.980469 7.015625 64.84375 7 64.664062 C 6.980469 64.472656 7.148438 64.292969 7.347656 64.289062 Z M 7.347656 64.289062 "/><path style=" stroke:none;fill-rule:nonzero;fill:#7fdbcd;fill-opacity:1;" d="M 9.863281 73.609375 C 9.851562 73.792969 9.703125 73.933594 9.515625 73.929688 C 9.3125 73.929688 9.164062 73.757812 9.1875 73.550781 C 9.210938 73.363281 9.363281 73.238281 9.550781 73.253906 C 9.730469 73.273438 9.871094 73.433594 9.863281 73.609375 Z M 9.863281 73.609375 "/><path style=" stroke:none;fill-rule:nonzero;fill:#7fdbcd;fill-opacity:1;" d="M 8.875 68.242188 C 8.691406 68.246094 8.535156 68.09375 8.53125 67.914062 C 8.53125 67.738281 8.6875 67.574219 8.863281 67.570312 C 9.046875 67.570312 9.199219 67.71875 9.203125 67.90625 C 9.207031 68.089844 9.058594 68.242188 8.875 68.242188 Z M 8.875 68.242188 "/><path style=" stroke:none;fill-rule:nonzero;fill:#7fdbcd;fill-opacity:1;" d="M 1.453125 102.925781 C 1.636719 102.925781 1.785156 103.078125 1.785156 103.265625 C 1.785156 103.449219 1.636719 103.597656 1.449219 103.597656 C 1.269531 103.597656 1.113281 103.4375 1.113281 103.261719 C 1.117188 103.085938 1.277344 102.925781 1.453125 102.925781 Z M 1.453125 102.925781 "/><path style=" stroke:none;fill-rule:nonzero;fill:#7fdbcd;fill-opacity:1;" d="M 10.203125 78.929688 C 10.382812 78.933594 10.539062 79.097656 10.527344 79.273438 C 10.515625 79.429688 10.367188 79.574219 10.210938 79.585938 C 10.039062 79.597656 9.871094 79.4375 9.867188 79.257812 C 9.867188 79.074219 10.015625 78.925781 10.203125 78.929688 Z M 10.203125 78.929688 "/><g clip-rule="nonzero" clip-path="url(#8e436dcc09)"><path style=" stroke:none;fill-rule:nonzero;fill:#7fdbcd;fill-opacity:1;" d="M 1.570312 51.527344 C 1.574219 51.699219 1.40625 51.867188 1.230469 51.863281 C 1.066406 51.859375 0.925781 51.730469 0.914062 51.5625 C 0.898438 51.382812 1.042969 51.214844 1.222656 51.203125 C 1.394531 51.191406 1.566406 51.355469 1.570312 51.527344 Z M 1.570312 51.527344 "/></g><g clip-rule="nonzero" clip-path="url(#ec1ee8cd1c)"><path style=" stroke:none;fill-rule:nonzero;fill:#7fdbcd;fill-opacity:1;" d="M 0.875 105.695312 C 0.863281 105.851562 0.707031 105.992188 0.550781 105.988281 C 0.375 105.980469 0.222656 105.796875 0.253906 105.625 C 0.28125 105.464844 0.445312 105.335938 0.597656 105.359375 C 0.753906 105.378906 0.890625 105.542969 0.875 105.695312 Z M 0.875 105.695312 "/></g><path style=" stroke:none;fill-rule:nonzero;fill:#7fdbcd;fill-opacity:1;" d="M 11.042969 76.566406 C 11.195312 76.554688 11.355469 76.695312 11.367188 76.851562 C 11.375 77.003906 11.234375 77.164062 11.082031 77.175781 C 10.929688 77.1875 10.765625 77.042969 10.757812 76.890625 C 10.746094 76.734375 10.882812 76.578125 11.042969 76.566406 Z M 11.042969 76.566406 "/><path style=" stroke:none;fill-rule:nonzero;fill:#7fdbcd;fill-opacity:1;" d="M 10.722656 71.191406 C 10.71875 71.347656 10.558594 71.5 10.40625 71.496094 C 10.253906 71.492188 10.097656 71.328125 10.101562 71.179688 C 10.105469 71.027344 10.269531 70.871094 10.417969 70.875 C 10.574219 70.878906 10.726562 71.035156 10.722656 71.191406 Z M 10.722656 71.191406 "/><path style=" stroke:none;fill-rule:nonzero;fill:#7fdbcd;fill-opacity:1;" d="M 6.765625 96.945312 C 6.753906 97.109375 6.605469 97.238281 6.449219 97.230469 C 6.289062 97.222656 6.152344 97.074219 6.160156 96.914062 C 6.167969 96.753906 6.3125 96.628906 6.480469 96.636719 C 6.644531 96.644531 6.78125 96.789062 6.765625 96.945312 Z M 6.765625 96.945312 "/><path style=" stroke:none;fill-rule:nonzero;fill:#7fdbcd;fill-opacity:1;" d="M 8.222656 61.957031 C 8.394531 61.960938 8.523438 62.089844 8.519531 62.257812 C 8.515625 62.421875 8.382812 62.554688 8.21875 62.550781 C 8.054688 62.550781 7.925781 62.421875 7.925781 62.25 C 7.925781 62.078125 8.054688 61.957031 8.222656 61.957031 Z M 8.222656 61.957031 "/><path style=" stroke:none;fill-rule:nonzero;fill:#7fdbcd;fill-opacity:1;" d="M 8.210938 92.441406 C 8.039062 92.4375 7.914062 92.308594 7.914062 92.136719 C 7.914062 91.964844 8.039062 91.835938 8.210938 91.832031 C 8.402344 91.824219 8.539062 91.96875 8.527344 92.160156 C 8.519531 92.332031 8.386719 92.449219 8.210938 92.441406 Z M 8.210938 92.441406 "/><path style=" stroke:none;fill-rule:nonzero;fill:#7fdbcd;fill-opacity:1;" d="M 9.96875 87.039062 C 10.128906 87.050781 10.257812 87.195312 10.253906 87.355469 C 10.25 87.519531 10.109375 87.648438 9.941406 87.640625 C 9.773438 87.636719 9.652344 87.5 9.660156 87.328125 C 9.667969 87.164062 9.8125 87.027344 9.96875 87.039062 Z M 9.96875 87.039062 "/><path style=" stroke:none;fill-rule:nonzero;fill:#7fdbcd;fill-opacity:1;" d="M 7.660156 94.527344 C 7.671875 94.699219 7.554688 94.835938 7.382812 94.847656 C 7.210938 94.863281 7.066406 94.75 7.046875 94.585938 C 7.027344 94.394531 7.160156 94.242188 7.351562 94.238281 C 7.527344 94.238281 7.652344 94.355469 7.660156 94.527344 Z M 7.660156 94.527344 "/><path style=" stroke:none;fill-rule:nonzero;fill:#7fdbcd;fill-opacity:1;" d="M 6.695312 58.683594 C 6.867188 58.679688 6.996094 58.800781 6.996094 58.972656 C 7 59.140625 6.871094 59.273438 6.707031 59.277344 C 6.542969 59.28125 6.410156 59.152344 6.40625 58.984375 C 6.398438 58.816406 6.527344 58.6875 6.695312 58.683594 Z M 6.695312 58.683594 "/><path style=" stroke:none;fill-rule:nonzero;fill:#7fdbcd;fill-opacity:1;" d="M 5.152344 55.410156 C 5.324219 55.402344 5.453125 55.523438 5.457031 55.695312 C 5.460938 55.863281 5.332031 55.996094 5.167969 56.003906 C 5.007812 56.007812 4.871094 55.875 4.863281 55.710938 C 4.855469 55.542969 4.980469 55.414062 5.152344 55.410156 Z M 5.152344 55.410156 "/><path style=" stroke:none;fill-rule:nonzero;fill:#7fdbcd;fill-opacity:1;" d="M 9.390625 89.75 C 9.382812 89.917969 9.253906 90.035156 9.078125 90.03125 C 8.910156 90.027344 8.785156 89.902344 8.785156 89.730469 C 8.785156 89.542969 8.933594 89.40625 9.121094 89.425781 C 9.289062 89.441406 9.402344 89.578125 9.390625 89.75 Z M 9.390625 89.75 "/><path style=" stroke:none;fill-rule:nonzero;fill:#7fdbcd;fill-opacity:1;" d="M 9.765625 65.816406 C 9.625 65.820312 9.492188 65.699219 9.480469 65.554688 C 9.464844 65.378906 9.582031 65.246094 9.757812 65.246094 C 9.910156 65.246094 10.039062 65.355469 10.050781 65.5 C 10.066406 65.65625 9.925781 65.8125 9.765625 65.816406 Z M 9.765625 65.816406 "/><path style=" stroke:none;fill-rule:nonzero;fill:#7fdbcd;fill-opacity:1;" d="M 5.886719 99.339844 C 5.882812 99.496094 5.726562 99.640625 5.574219 99.628906 C 5.433594 99.617188 5.316406 99.484375 5.316406 99.339844 C 5.316406 99.164062 5.445312 99.042969 5.621094 99.058594 C 5.769531 99.070312 5.890625 99.199219 5.886719 99.339844 Z M 5.886719 99.339844 "/><path style=" stroke:none;fill-rule:nonzero;fill:#7fdbcd;fill-opacity:1;" d="M 3.921875 52.4375 C 3.914062 52.59375 3.792969 52.714844 3.644531 52.710938 C 3.484375 52.710938 3.339844 52.546875 3.359375 52.390625 C 3.378906 52.246094 3.515625 52.136719 3.667969 52.148438 C 3.820312 52.15625 3.925781 52.28125 3.921875 52.4375 Z M 3.921875 52.4375 "/><path style=" stroke:none;fill-rule:nonzero;fill:#7fdbcd;fill-opacity:1;" d="M 11.128906 84.945312 C 11.125 85.097656 11.011719 85.210938 10.859375 85.214844 C 10.6875 85.222656 10.546875 85.089844 10.558594 84.925781 C 10.566406 84.785156 10.691406 84.65625 10.832031 84.644531 C 10.984375 84.632812 11.128906 84.777344 11.128906 84.945312 Z M 11.128906 84.945312 "/><path style=" stroke:none;fill-rule:nonzero;fill:#7fdbcd;fill-opacity:1;" d="M 11.703125 82.792969 C 11.550781 82.792969 11.429688 82.667969 11.4375 82.523438 C 11.441406 82.378906 11.574219 82.25 11.71875 82.253906 C 11.863281 82.257812 11.988281 82.390625 11.984375 82.535156 C 11.980469 82.6875 11.863281 82.796875 11.703125 82.792969 Z M 11.703125 82.792969 "/><path style=" stroke:none;fill-rule:nonzero;fill:#7fdbcd;fill-opacity:1;" d="M 5 101.753906 C 4.996094 101.902344 4.863281 102.027344 4.71875 102.023438 C 4.578125 102.019531 4.457031 101.886719 4.460938 101.738281 C 4.46875 101.578125 4.582031 101.46875 4.738281 101.476562 C 4.890625 101.484375 5.003906 101.605469 5 101.753906 Z M 5 101.753906 "/><path style=" stroke:none;fill-rule:nonzero;fill:#7fdbcd;fill-opacity:1;" d="M 11.933594 74.71875 C 11.78125 74.722656 11.660156 74.605469 11.664062 74.457031 C 11.667969 74.320312 11.765625 74.214844 11.898438 74.203125 C 12.058594 74.1875 12.179688 74.289062 12.191406 74.441406 C 12.199219 74.597656 12.09375 74.714844 11.933594 74.71875 Z M 11.933594 74.71875 "/><path style=" stroke:none;fill-rule:nonzero;fill:#7fdbcd;fill-opacity:1;" d="M 2.109375 48.890625 C 2.234375 48.878906 2.355469 48.976562 2.375 49.105469 C 2.402344 49.253906 2.292969 49.394531 2.144531 49.40625 C 2.015625 49.414062 1.894531 49.316406 1.875 49.191406 C 1.855469 49.042969 1.960938 48.90625 2.109375 48.890625 Z M 2.109375 48.890625 "/><path style=" stroke:none;fill-rule:nonzero;fill:#7fdbcd;fill-opacity:1;" d="M 12.824219 80.15625 C 12.820312 80.28125 12.699219 80.386719 12.570312 80.382812 C 12.433594 80.378906 12.332031 80.265625 12.339844 80.132812 C 12.347656 79.996094 12.460938 79.894531 12.59375 79.902344 C 12.71875 79.910156 12.832031 80.03125 12.824219 80.15625 Z M 12.824219 80.15625 "/><path style=" stroke:none;fill-rule:nonzero;fill:#7fdbcd;fill-opacity:1;" d="M 11.28125 69.027344 C 11.125 69.027344 11.015625 68.910156 11.027344 68.757812 C 11.035156 68.625 11.140625 68.527344 11.273438 68.523438 C 11.421875 68.519531 11.535156 68.640625 11.527344 68.796875 C 11.519531 68.929688 11.414062 69.027344 11.28125 69.027344 Z M 11.28125 69.027344 "/><path style=" stroke:none;fill-rule:nonzero;fill:#7fdbcd;fill-opacity:1;" d="M 3.832031 103.878906 C 3.984375 103.875 4.097656 103.992188 4.089844 104.144531 C 4.085938 104.273438 3.984375 104.375 3.847656 104.378906 C 3.710938 104.386719 3.605469 104.292969 3.589844 104.160156 C 3.578125 104.003906 3.679688 103.882812 3.832031 103.878906 Z M 3.832031 103.878906 "/><path style=" stroke:none;fill-rule:nonzero;fill:#7fdbcd;fill-opacity:1;" d="M 12.773438 72.277344 C 12.664062 72.265625 12.570312 72.164062 12.570312 72.054688 C 12.570312 71.925781 12.699219 71.808594 12.816406 71.824219 C 12.921875 71.839844 13.023438 71.949219 13.027344 72.050781 C 13.027344 72.171875 12.898438 72.289062 12.773438 72.277344 Z M 12.773438 72.277344 "/><path style=" stroke:none;fill-rule:nonzero;fill:#7fdbcd;fill-opacity:1;" d="M 2.75 106.515625 C 2.761719 106.40625 2.867188 106.308594 2.96875 106.308594 C 3.089844 106.308594 3.210938 106.441406 3.199219 106.558594 C 3.183594 106.691406 3.050781 106.789062 2.925781 106.761719 C 2.816406 106.734375 2.738281 106.628906 2.75 106.515625 Z M 2.75 106.515625 "/><path style=" stroke:none;fill-rule:nonzero;fill:#7fdbcd;fill-opacity:1;" d="M 9.355469 59.859375 C 9.351562 59.980469 9.234375 60.078125 9.097656 60.074219 C 8.960938 60.070312 8.867188 59.957031 8.878906 59.824219 C 8.894531 59.691406 9.015625 59.582031 9.132812 59.597656 C 9.253906 59.613281 9.359375 59.734375 9.355469 59.859375 Z M 9.355469 59.859375 "/><path style=" stroke:none;fill-rule:nonzero;fill:#7fdbcd;fill-opacity:1;" d="M 7.8125 56.597656 C 7.800781 56.722656 7.679688 56.808594 7.542969 56.796875 C 7.40625 56.785156 7.320312 56.671875 7.339844 56.535156 C 7.363281 56.398438 7.480469 56.304688 7.601562 56.324219 C 7.730469 56.347656 7.824219 56.472656 7.8125 56.597656 Z M 7.8125 56.597656 "/><path style=" stroke:none;fill-rule:nonzero;fill:#7fdbcd;fill-opacity:1;" d="M 9.960938 95.433594 C 9.949219 95.542969 9.855469 95.632812 9.742188 95.632812 C 9.609375 95.632812 9.5 95.519531 9.511719 95.394531 C 9.523438 95.265625 9.648438 95.179688 9.78125 95.199219 C 9.898438 95.222656 9.96875 95.316406 9.960938 95.433594 Z M 9.960938 95.433594 "/><path style=" stroke:none;fill-rule:nonzero;fill:#7fdbcd;fill-opacity:1;" d="M 11.496094 90.847656 C 11.371094 90.847656 11.261719 90.722656 11.277344 90.597656 C 11.285156 90.484375 11.382812 90.398438 11.496094 90.398438 C 11.628906 90.398438 11.726562 90.507812 11.710938 90.644531 C 11.699219 90.753906 11.597656 90.851562 11.496094 90.847656 Z M 11.496094 90.847656 "/><path style=" stroke:none;fill-rule:nonzero;fill:#7fdbcd;fill-opacity:1;" d="M 10.613281 62.894531 C 10.722656 62.886719 10.824219 62.964844 10.839844 63.078125 C 10.863281 63.21875 10.78125 63.328125 10.644531 63.335938 C 10.523438 63.34375 10.429688 63.269531 10.410156 63.15625 C 10.390625 63.027344 10.484375 62.90625 10.613281 62.894531 Z M 10.613281 62.894531 "/><path style=" stroke:none;fill-rule:nonzero;fill:#7fdbcd;fill-opacity:1;" d="M 10.597656 93.222656 C 10.46875 93.21875 10.359375 93.097656 10.378906 92.976562 C 10.394531 92.871094 10.5 92.785156 10.609375 92.785156 C 10.746094 92.789062 10.84375 92.898438 10.824219 93.035156 C 10.8125 93.144531 10.710938 93.226562 10.597656 93.222656 Z M 10.597656 93.222656 "/><path style=" stroke:none;fill-rule:nonzero;fill:#7fdbcd;fill-opacity:1;" d="M 6.28125 53.296875 C 6.28125 53.402344 6.183594 53.5 6.070312 53.507812 C 5.9375 53.519531 5.824219 53.417969 5.828125 53.285156 C 5.832031 53.179688 5.929688 53.074219 6.035156 53.070312 C 6.160156 53.0625 6.285156 53.175781 6.28125 53.296875 Z M 6.28125 53.296875 "/><path style=" stroke:none;fill-rule:nonzero;fill:#7fdbcd;fill-opacity:1;" d="M 8.664062 97.804688 C 8.675781 97.6875 8.777344 97.609375 8.894531 97.621094 C 9.011719 97.636719 9.097656 97.75 9.078125 97.855469 C 9.0625 97.941406 8.960938 98.019531 8.871094 98.019531 C 8.757812 98.019531 8.65625 97.914062 8.664062 97.804688 Z M 8.664062 97.804688 "/><path style=" stroke:none;fill-rule:nonzero;fill:#7fdbcd;fill-opacity:1;" d="M 4.714844 50.03125 C 4.703125 50.152344 4.601562 50.234375 4.488281 50.222656 C 4.375 50.207031 4.285156 50.089844 4.304688 49.984375 C 4.324219 49.878906 4.445312 49.800781 4.558594 49.828125 C 4.652344 49.847656 4.726562 49.941406 4.714844 50.03125 Z M 4.714844 50.03125 "/><g clip-rule="nonzero" clip-path="url(#e42de37214)"><path style=" stroke:none;fill-rule:nonzero;fill:#7fdbcd;fill-opacity:1;" d="M 0.792969 45.890625 C 0.78125 46.007812 0.679688 46.089844 0.566406 46.078125 C 0.457031 46.066406 0.363281 45.949219 0.378906 45.84375 C 0.390625 45.765625 0.5 45.675781 0.585938 45.675781 C 0.703125 45.675781 0.804688 45.78125 0.792969 45.890625 Z M 0.792969 45.890625 "/></g><path style=" stroke:none;fill-rule:nonzero;fill:#7fdbcd;fill-opacity:1;" d="M 12.355469 66.382812 C 12.359375 66.496094 12.257812 66.597656 12.148438 66.601562 C 12.039062 66.601562 11.933594 66.492188 11.9375 66.382812 C 11.945312 66.292969 12.027344 66.207031 12.121094 66.199219 C 12.238281 66.1875 12.347656 66.273438 12.355469 66.382812 Z M 12.355469 66.382812 "/><path style=" stroke:none;fill-rule:nonzero;fill:#7fdbcd;fill-opacity:1;" d="M 13.640625 77.714844 C 13.65625 77.828125 13.566406 77.9375 13.457031 77.945312 C 13.351562 77.949219 13.242188 77.847656 13.242188 77.738281 C 13.242188 77.652344 13.324219 77.546875 13.410156 77.53125 C 13.515625 77.507812 13.628906 77.597656 13.640625 77.714844 Z M 13.640625 77.714844 "/><path style=" stroke:none;fill-rule:nonzero;fill:#7fdbcd;fill-opacity:1;" d="M 8.207031 100.160156 C 8.207031 100.316406 8.101562 100.414062 7.988281 100.40625 C 7.890625 100.398438 7.816406 100.316406 7.808594 100.214844 C 7.800781 100.097656 7.910156 99.988281 8.019531 100.019531 C 8.097656 100.042969 8.160156 100.121094 8.207031 100.160156 Z M 8.207031 100.160156 "/><path style=" stroke:none;fill-rule:nonzero;fill:#7fdbcd;fill-opacity:1;" d="M 12.5625 88.234375 C 12.554688 88.34375 12.441406 88.429688 12.328125 88.414062 C 12.242188 88.402344 12.160156 88.296875 12.164062 88.207031 C 12.167969 88.089844 12.265625 87.996094 12.378906 88.003906 C 12.492188 88.015625 12.574219 88.117188 12.5625 88.234375 Z M 12.5625 88.234375 "/><path style=" stroke:none;fill-rule:nonzero;fill:#7fdbcd;fill-opacity:1;" d="M 13.410156 85.746094 C 13.425781 85.886719 13.347656 85.96875 13.242188 85.976562 C 13.136719 85.988281 13.050781 85.910156 13.050781 85.8125 C 13.050781 85.714844 13.132812 85.601562 13.21875 85.621094 C 13.296875 85.640625 13.359375 85.710938 13.410156 85.746094 Z M 13.410156 85.746094 "/><path style=" stroke:none;fill-rule:nonzero;fill:#7fdbcd;fill-opacity:1;" d="M 7.160156 102.441406 C 7.1875 102.472656 7.257812 102.519531 7.277344 102.582031 C 7.308594 102.675781 7.222656 102.78125 7.128906 102.792969 C 7.039062 102.800781 6.945312 102.71875 6.9375 102.621094 C 6.929688 102.523438 7.011719 102.441406 7.160156 102.441406 Z M 7.160156 102.441406 "/><path style=" stroke:none;fill-rule:nonzero;fill:#7fdbcd;fill-opacity:1;" d="M 11.503906 60.925781 C 11.425781 60.839844 11.359375 60.792969 11.335938 60.730469 C 11.304688 60.648438 11.398438 60.550781 11.492188 60.546875 C 11.585938 60.542969 11.660156 60.613281 11.652344 60.679688 C 11.644531 60.753906 11.570312 60.820312 11.503906 60.925781 Z M 11.503906 60.925781 "/><path style=" stroke:none;fill-rule:nonzero;fill:#7fdbcd;fill-opacity:1;" d="M 8.605469 54.183594 C 8.574219 54.214844 8.535156 54.285156 8.472656 54.3125 C 8.394531 54.351562 8.265625 54.261719 8.28125 54.171875 C 8.289062 54.109375 8.34375 54.035156 8.402344 54.003906 C 8.480469 53.960938 8.589844 54.046875 8.605469 54.183594 Z M 8.605469 54.183594 "/><path style=" stroke:none;fill-rule:nonzero;fill:#7fdbcd;fill-opacity:1;" d="M 10.148438 57.449219 C 10.117188 57.484375 10.078125 57.554688 10.019531 57.585938 C 9.941406 57.628906 9.8125 57.542969 9.820312 57.453125 C 9.828125 57.390625 9.882812 57.3125 9.9375 57.28125 C 10.015625 57.234375 10.128906 57.320312 10.148438 57.449219 Z M 10.148438 57.449219 "/><path style=" stroke:none;fill-rule:nonzero;fill:#7fdbcd;fill-opacity:1;" d="M 2.277344 108.960938 C 2.269531 109.0625 2.1875 109.132812 2.089844 109.125 C 1.992188 109.113281 1.914062 109.027344 1.921875 108.933594 C 1.925781 108.839844 2.011719 108.769531 2.113281 108.773438 C 2.21875 108.773438 2.285156 108.851562 2.277344 108.960938 Z M 2.277344 108.960938 "/><path style=" stroke:none;fill-rule:nonzero;fill:#7fdbcd;fill-opacity:1;" d="M 2.996094 46.949219 C 2.929688 46.863281 2.863281 46.8125 2.847656 46.75 C 2.820312 46.652344 2.917969 46.566406 3.015625 46.582031 C 3.109375 46.597656 3.164062 46.664062 3.140625 46.75 C 3.125 46.8125 3.058594 46.863281 2.996094 46.949219 Z M 2.996094 46.949219 "/><path style=" stroke:none;fill-rule:nonzero;fill:#7fdbcd;fill-opacity:1;" d="M 13.890625 69.652344 C 13.808594 69.726562 13.765625 69.796875 13.703125 69.820312 C 13.617188 69.851562 13.523438 69.753906 13.53125 69.652344 C 13.539062 69.558594 13.605469 69.5 13.6875 69.511719 C 13.746094 69.519531 13.800781 69.585938 13.890625 69.652344 Z M 13.890625 69.652344 "/><path style=" stroke:none;fill-rule:nonzero;fill:#7fdbcd;fill-opacity:1;" d="M 14.292969 83.410156 C 14.257812 83.53125 14.199219 83.574219 14.109375 83.570312 C 14.015625 83.5625 13.964844 83.503906 13.957031 83.417969 C 13.949219 83.332031 14.078125 83.234375 14.15625 83.269531 C 14.214844 83.300781 14.253906 83.371094 14.292969 83.410156 Z M 14.292969 83.410156 "/><path style=" stroke:none;fill-rule:nonzero;fill:#7fdbcd;fill-opacity:1;" d="M 14.546875 75.328125 C 14.453125 75.394531 14.402344 75.453125 14.335938 75.472656 C 14.269531 75.496094 14.183594 75.402344 14.183594 75.328125 C 14.183594 75.25 14.269531 75.15625 14.335938 75.179688 C 14.402344 75.199219 14.453125 75.261719 14.546875 75.328125 Z M 14.546875 75.328125 "/><path style=" stroke:none;fill-rule:nonzero;fill:#7fdbcd;fill-opacity:1;" d="M 13.210938 64.042969 C 13.113281 64.074219 13.0625 64.105469 13.011719 64.101562 C 12.925781 64.097656 12.875 64.007812 12.917969 63.941406 C 12.949219 63.898438 13.027344 63.847656 13.054688 63.859375 C 13.109375 63.886719 13.140625 63.957031 13.210938 64.042969 Z M 13.210938 64.042969 "/><path style=" stroke:none;fill-rule:nonzero;fill:#7fdbcd;fill-opacity:1;" d="M 1.238281 111.164062 C 1.292969 111.226562 1.347656 111.265625 1.367188 111.3125 C 1.390625 111.378906 1.308594 111.46875 1.238281 111.46875 C 1.164062 111.472656 1.089844 111.382812 1.113281 111.308594 C 1.132812 111.261719 1.183594 111.226562 1.238281 111.164062 Z M 1.238281 111.164062 "/><path style=" stroke:none;fill-rule:nonzero;fill:#7fdbcd;fill-opacity:1;" d="M 6.9375 50.746094 C 6.96875 50.78125 7.027344 50.828125 7.050781 50.886719 C 7.058594 50.910156 6.984375 50.988281 6.941406 51 C 6.898438 51.003906 6.828125 50.964844 6.800781 50.925781 C 6.761719 50.863281 6.824219 50.765625 6.9375 50.746094 Z M 6.9375 50.746094 "/><g clip-rule="nonzero" clip-path="url(#0ac99a247a)"><path style=" stroke:none;fill-rule:nonzero;fill:#7fdbcd;fill-opacity:1;" d="M 15.183594 81.011719 C 15.082031 81.070312 15.027344 81.121094 14.964844 81.128906 C 14.933594 81.132812 14.863281 81.054688 14.863281 81.011719 C 14.867188 80.964844 14.933594 80.882812 14.964844 80.886719 C 15.027344 80.894531 15.082031 80.949219 15.183594 81.011719 Z M 15.183594 81.011719 "/></g><path style=" stroke:none;fill-rule:nonzero;fill:#7fdbcd;fill-opacity:1;" d="M 6.242188 105.183594 C 6.191406 105.125 6.140625 105.089844 6.121094 105.039062 C 6.101562 104.972656 6.183594 104.878906 6.25 104.882812 C 6.3125 104.882812 6.398438 104.980469 6.375 105.042969 C 6.355469 105.089844 6.300781 105.125 6.242188 105.183594 Z M 6.242188 105.183594 "/><path style=" stroke:none;fill-rule:nonzero;fill:#7fdbcd;fill-opacity:1;" d="M 12.132812 96.164062 C 12.179688 96.203125 12.226562 96.222656 12.246094 96.257812 C 12.273438 96.308594 12.203125 96.382812 12.136719 96.367188 C 12.101562 96.355469 12.058594 96.308594 12.058594 96.277344 C 12.054688 96.242188 12.101562 96.210938 12.132812 96.164062 Z M 12.132812 96.164062 "/><g clip-rule="nonzero" clip-path="url(#fc7ff0d910)"><path style=" stroke:none;fill-rule:nonzero;fill:#7fdbcd;fill-opacity:1;" d="M 15.964844 78.585938 C 15.929688 78.636719 15.910156 78.683594 15.875 78.703125 C 15.828125 78.730469 15.738281 78.652344 15.757812 78.59375 C 15.773438 78.558594 15.820312 78.515625 15.855469 78.511719 C 15.882812 78.507812 15.921875 78.554688 15.964844 78.585938 Z M 15.964844 78.585938 "/></g><path style=" stroke:none;fill-rule:nonzero;fill:#7fdbcd;fill-opacity:1;" d="M 13.15625 93.886719 C 13.09375 93.933594 13.054688 93.976562 13.007812 93.988281 C 12.980469 93.992188 12.945312 93.933594 12.914062 93.90625 C 12.949219 93.867188 12.980469 93.816406 13.023438 93.792969 C 13.042969 93.785156 13.089844 93.839844 13.15625 93.886719 Z M 13.15625 93.886719 "/><path style=" stroke:none;fill-rule:nonzero;fill:#7fdbcd;fill-opacity:1;" d="M 11.40625 98.707031 C 11.351562 98.738281 11.316406 98.773438 11.277344 98.777344 C 11.210938 98.785156 11.15625 98.699219 11.195312 98.648438 C 11.21875 98.621094 11.273438 98.597656 11.308594 98.605469 C 11.34375 98.609375 11.367188 98.660156 11.40625 98.707031 Z M 11.40625 98.707031 "/><path style=" stroke:none;fill-rule:nonzero;fill:#7fdbcd;fill-opacity:1;" d="M 13.875 91.34375 C 13.929688 91.402344 13.984375 91.449219 13.976562 91.464844 C 13.957031 91.511719 13.914062 91.550781 13.871094 91.578125 C 13.859375 91.585938 13.78125 91.519531 13.785156 91.496094 C 13.792969 91.449219 13.835938 91.40625 13.875 91.34375 Z M 13.875 91.34375 "/><g clip-rule="nonzero" clip-path="url(#9ce764eb62)"><path style=" stroke:none;fill-rule:nonzero;fill:#7fdbcd;fill-opacity:1;" d="M 15.324219 72.941406 C 15.277344 72.984375 15.25 73.03125 15.210938 73.042969 C 15.15625 73.0625 15.074219 72.976562 15.105469 72.925781 C 15.125 72.894531 15.175781 72.859375 15.210938 72.859375 C 15.246094 72.859375 15.277344 72.90625 15.324219 72.941406 Z M 15.324219 72.941406 "/></g><path style=" stroke:none;fill-rule:nonzero;fill:#7fdbcd;fill-opacity:1;" d="M 5.511719 107.40625 C 5.457031 107.449219 5.417969 107.496094 5.367188 107.507812 C 5.34375 107.511719 5.273438 107.4375 5.28125 107.425781 C 5.304688 107.375 5.34375 107.332031 5.386719 107.304688 C 5.402344 107.296875 5.453125 107.355469 5.511719 107.40625 Z M 5.511719 107.40625 "/><path style=" stroke:none;fill-rule:nonzero;fill:#7fdbcd;fill-opacity:1;" d="M 14.890625 89.0625 C 14.847656 89.105469 14.824219 89.148438 14.789062 89.164062 C 14.734375 89.191406 14.664062 89.125 14.683594 89.058594 C 14.695312 89.023438 14.746094 88.980469 14.777344 88.980469 C 14.808594 88.980469 14.84375 89.027344 14.890625 89.0625 Z M 14.890625 89.0625 "/><path style=" stroke:none;fill-rule:nonzero;fill:#7fdbcd;fill-opacity:1;" d="M 14.527344 67.15625 C 14.578125 67.1875 14.628906 67.199219 14.652344 67.234375 C 14.683594 67.277344 14.609375 67.375 14.554688 67.359375 C 14.519531 67.351562 14.472656 67.308594 14.464844 67.273438 C 14.457031 67.242188 14.5 67.203125 14.527344 67.15625 Z M 14.527344 67.15625 "/><path style=" stroke:none;fill-rule:nonzero;fill:#7fdbcd;fill-opacity:1;" d="M 5.375 47.503906 C 5.429688 47.535156 5.476562 47.550781 5.5 47.582031 C 5.535156 47.625 5.460938 47.726562 5.40625 47.710938 C 5.367188 47.699219 5.324219 47.65625 5.3125 47.621094 C 5.308594 47.59375 5.347656 47.550781 5.375 47.503906 Z M 5.375 47.503906 "/><path style=" stroke:none;fill-rule:nonzero;fill:#7fdbcd;fill-opacity:1;" d="M 1.464844 43.585938 C 1.4375 43.535156 1.402344 43.507812 1.394531 43.472656 C 1.386719 43.390625 1.453125 43.375 1.511719 43.390625 C 1.535156 43.398438 1.566406 43.460938 1.5625 43.492188 C 1.558594 43.519531 1.507812 43.542969 1.464844 43.585938 Z M 1.464844 43.585938 "/><path style=" stroke:none;fill-rule:nonzero;fill:#7fdbcd;fill-opacity:1;" d="M 10.902344 55.074219 C 10.878906 55.085938 10.855469 55.09375 10.828125 55.105469 C 10.820312 55.078125 10.800781 55.046875 10.808594 55.03125 C 10.816406 55.011719 10.851562 55.003906 10.878906 54.992188 C 10.886719 55.019531 10.894531 55.046875 10.902344 55.074219 Z M 10.902344 55.074219 "/><path style=" stroke:none;fill-rule:nonzero;fill:#7fdbcd;fill-opacity:1;" d="M 12.332031 58.382812 C 12.324219 58.355469 12.304688 58.328125 12.3125 58.304688 C 12.316406 58.289062 12.355469 58.285156 12.378906 58.273438 C 12.386719 58.300781 12.410156 58.332031 12.402344 58.351562 C 12.394531 58.367188 12.355469 58.375 12.332031 58.382812 Z M 12.332031 58.382812 "/><g clip-rule="nonzero" clip-path="url(#17c35b57bd)"><path style=" stroke:none;fill-rule:nonzero;fill:#7fdbcd;fill-opacity:1;" d="M 15.617188 86.730469 C 15.605469 86.710938 15.597656 86.691406 15.589844 86.671875 C 15.613281 86.671875 15.640625 86.664062 15.664062 86.664062 C 15.671875 86.667969 15.679688 86.6875 15.691406 86.695312 C 15.664062 86.707031 15.640625 86.71875 15.617188 86.730469 Z M 15.617188 86.730469 "/></g><path style=" stroke:none;fill-rule:nonzero;fill:#7fdbcd;fill-opacity:1;" d="M 10.433594 101.109375 C 10.414062 101.117188 10.394531 101.128906 10.375 101.140625 C 10.371094 101.113281 10.363281 101.089844 10.367188 101.0625 C 10.367188 101.054688 10.386719 101.042969 10.398438 101.035156 C 10.410156 101.058594 10.421875 101.082031 10.433594 101.109375 Z M 10.433594 101.109375 "/></g></svg>